<svg width="120" height="25" viewBox="0 0 120 25" fill="none" xmlns="http://www.w3.org/2000/svg">
<path d="M38.714 16.638C37.656 16.638 36.7245 16.431 35.9195 16.017C35.126 15.603 34.5107 15.0395 34.0737 14.3265C33.6367 13.602 33.4182 12.7798 33.4182 11.8598C33.4182 10.9283 33.631 10.106 34.0565 9.39301C34.4935 8.66851 35.0857 8.10501 35.8332 7.70251C36.5807 7.28851 37.426 7.08151 38.369 7.08151C39.2775 7.08151 40.094 7.27701 40.8185 7.66801C41.5545 8.04751 42.1352 8.59951 42.5607 9.32401C42.9862 10.037 43.199 10.8938 43.199 11.8943C43.199 11.9978 43.1932 12.1185 43.1817 12.2565C43.1702 12.383 43.1587 12.5038 43.1472 12.6188H35.609V11.049H41.7327L40.6977 11.5148C40.6977 11.0318 40.6 10.612 40.4045 10.2555C40.209 9.89901 39.9387 9.62301 39.5937 9.42751C39.2487 9.22051 38.8462 9.11701 38.3862 9.11701C37.9262 9.11701 37.518 9.22051 37.1615 9.42751C36.8165 9.62301 36.5462 9.90476 36.3507 10.2728C36.1552 10.6293 36.0575 11.0548 36.0575 11.5493V11.9633C36.0575 12.4693 36.1667 12.9178 36.3852 13.3088C36.6152 13.6883 36.9315 13.9815 37.334 14.1885C37.748 14.384 38.231 14.4818 38.783 14.4818C39.2775 14.4818 39.7087 14.407 40.0767 14.2575C40.4562 14.108 40.8012 13.8838 41.1117 13.5848L42.5435 15.1373C42.118 15.6203 41.5832 15.994 40.9392 16.2585C40.2952 16.5115 39.5535 16.638 38.714 16.638Z" fill="white"/>
<path d="M49.4756 16.638C48.4751 16.638 47.5838 16.4368 46.8018 16.0343C46.0198 15.6203 45.4046 15.051 44.9561 14.3265C44.5191 13.602 44.3006 12.7798 44.3006 11.8598C44.3006 10.9283 44.5191 10.106 44.9561 9.39301C45.4046 8.66851 46.0198 8.10501 46.8018 7.70251C47.5838 7.28851 48.4751 7.08151 49.4756 7.08151C50.4531 7.08151 51.3041 7.28851 52.0286 7.70251C52.7531 8.10501 53.2878 8.68576 53.6328 9.44476L51.5456 10.566C51.3041 10.129 50.9993 9.80701 50.6313 9.60001C50.2748 9.39301 49.8838 9.28951 49.4583 9.28951C48.9983 9.28951 48.5843 9.39301 48.2163 9.60001C47.8483 9.80701 47.5551 10.1003 47.3366 10.4798C47.1296 10.8593 47.0261 11.3193 47.0261 11.8598C47.0261 12.4003 47.1296 12.8603 47.3366 13.2398C47.5551 13.6193 47.8483 13.9125 48.2163 14.1195C48.5843 14.3265 48.9983 14.43 49.4583 14.43C49.8838 14.43 50.2748 14.3323 50.6313 14.1368C50.9993 13.9298 51.3041 13.602 51.5456 13.1535L53.6328 14.292C53.2878 15.0395 52.7531 15.6203 52.0286 16.0343C51.3041 16.4368 50.4531 16.638 49.4756 16.638Z" fill="white"/>
<path d="M59.4803 16.638C58.4913 16.638 57.6115 16.431 56.841 16.017C56.082 15.603 55.4783 15.0395 55.0298 14.3265C54.5928 13.602 54.3743 12.7798 54.3743 11.8598C54.3743 10.9283 54.5928 10.106 55.0298 9.39301C55.4783 8.66851 56.082 8.10501 56.841 7.70251C57.6115 7.28851 58.4913 7.08151 59.4803 7.08151C60.4578 7.08151 61.3318 7.28851 62.1023 7.70251C62.8728 8.10501 63.4765 8.66276 63.9135 9.37576C64.3505 10.0888 64.569 10.9168 64.569 11.8598C64.569 12.7798 64.3505 13.602 63.9135 14.3265C63.4765 15.0395 62.8728 15.603 62.1023 16.017C61.3318 16.431 60.4578 16.638 59.4803 16.638ZM59.4803 14.43C59.9288 14.43 60.3313 14.3265 60.6878 14.1195C61.0443 13.9125 61.326 13.6193 61.5331 13.2398C61.74 12.8488 61.8435 12.3888 61.8435 11.8598C61.8435 11.3193 61.74 10.8593 61.5331 10.4798C61.326 10.1003 61.0443 9.80701 60.6878 9.60001C60.3313 9.39301 59.9288 9.28951 59.4803 9.28951C59.0318 9.28951 58.6293 9.39301 58.2728 9.60001C57.9163 9.80701 57.6288 10.1003 57.4103 10.4798C57.2033 10.8593 57.0998 11.3193 57.0998 11.8598C57.0998 12.3888 57.2033 12.8488 57.4103 13.2398C57.6288 13.6193 57.9163 13.9125 58.2728 14.1195C58.6293 14.3265 59.0318 14.43 59.4803 14.43Z" fill="white"/>
<path d="M72.0085 7.08151C72.7445 7.08151 73.4 7.23101 73.975 7.53001C74.5615 7.81751 75.0215 8.26601 75.355 8.87551C75.6885 9.47351 75.8553 10.244 75.8553 11.187V16.5H73.1643V11.601C73.1643 10.8535 72.9975 10.3015 72.664 9.94501C72.342 9.58851 71.882 9.41026 71.284 9.41026C70.8585 9.41026 70.4733 9.50226 70.1283 9.68626C69.7948 9.85876 69.5303 10.129 69.3348 10.497C69.1508 10.865 69.0588 11.3365 69.0588 11.9115V16.5H66.3678V7.21951H68.938V9.78976L68.455 9.01351C68.7885 8.39251 69.2658 7.91526 69.8868 7.58176C70.5078 7.24826 71.215 7.08151 72.0085 7.08151Z" fill="white"/>
<path d="M82.9677 16.638C81.9097 16.638 80.9782 16.431 80.1732 16.017C79.3797 15.603 78.7644 15.0395 78.3274 14.3265C77.8904 13.602 77.6719 12.7798 77.6719 11.8598C77.6719 10.9283 77.8847 10.106 78.3102 9.39301C78.7472 8.66851 79.3394 8.10501 80.0869 7.70251C80.8344 7.28851 81.6797 7.08151 82.6227 7.08151C83.5312 7.08151 84.3477 7.27701 85.0722 7.66801C85.8082 8.04751 86.3889 8.59951 86.8144 9.32401C87.2399 10.037 87.4527 10.8938 87.4527 11.8943C87.4527 11.9978 87.4469 12.1185 87.4354 12.2565C87.4239 12.383 87.4124 12.5038 87.4009 12.6188H79.8627V11.049H85.9864L84.9514 11.5148C84.9514 11.0318 84.8537 10.612 84.6582 10.2555C84.4627 9.89901 84.1924 9.62301 83.8474 9.42751C83.5024 9.22051 83.0999 9.11701 82.6399 9.11701C82.1799 9.11701 81.7717 9.22051 81.4152 9.42751C81.0702 9.62301 80.7999 9.90476 80.6044 10.2728C80.4089 10.6293 80.3112 11.0548 80.3112 11.5493V11.9633C80.3112 12.4693 80.4204 12.9178 80.6389 13.3088C80.8689 13.6883 81.1852 13.9815 81.5877 14.1885C82.0017 14.384 82.4847 14.4818 83.0367 14.4818C83.5312 14.4818 83.9624 14.407 84.3304 14.2575C84.7099 14.108 85.0549 13.8838 85.3654 13.5848L86.7972 15.1373C86.3717 15.6203 85.8369 15.994 85.1929 16.2585C84.5489 16.5115 83.8072 16.638 82.9677 16.638Z" fill="white"/>
<path d="M89.2442 16.5V7.21951H91.8145V9.84151L91.4522 9.08251C91.7282 8.42701 92.171 7.93251 92.7805 7.59901C93.39 7.25401 94.1317 7.08151 95.0057 7.08151V9.56551C94.8907 9.55401 94.7872 9.54826 94.6952 9.54826C94.6032 9.53676 94.5055 9.53101 94.402 9.53101C93.666 9.53101 93.068 9.74376 92.608 10.1693C92.1595 10.5833 91.9352 11.233 91.9352 12.1185V16.5H89.2442Z" fill="white"/>
<path d="M100.903 19.9845C100.029 19.9845 99.1834 19.8753 98.3669 19.6568C97.5619 19.4498 96.8892 19.1335 96.3487 18.708L97.4182 16.776C97.8092 17.098 98.3037 17.351 98.9017 17.535C99.5112 17.7305 100.109 17.8283 100.696 17.8283C101.65 17.8283 102.34 17.6155 102.766 17.19C103.203 16.7645 103.421 16.132 103.421 15.2925V13.8953L103.594 11.5665L103.559 9.22051V7.21951H106.112V14.9475C106.112 16.6725 105.664 17.9433 104.767 18.7598C103.87 19.5763 102.582 19.9845 100.903 19.9845ZM100.489 16.0515C99.6262 16.0515 98.8442 15.8675 98.1427 15.4995C97.4527 15.12 96.8949 14.5968 96.4694 13.9298C96.0554 13.2513 95.8484 12.4635 95.8484 11.5665C95.8484 10.658 96.0554 9.87026 96.4694 9.20326C96.8949 8.52476 97.4527 8.00151 98.1427 7.63351C98.8442 7.26551 99.6262 7.08151 100.489 7.08151C101.271 7.08151 101.961 7.24251 102.559 7.56451C103.157 7.87501 103.622 8.36376 103.956 9.03076C104.289 9.68626 104.456 10.5315 104.456 11.5665C104.456 12.59 104.289 13.4353 103.956 14.1023C103.622 14.7578 103.157 15.2465 102.559 15.5685C101.961 15.8905 101.271 16.0515 100.489 16.0515ZM101.023 13.8435C101.495 13.8435 101.915 13.7515 102.283 13.5675C102.651 13.372 102.938 13.1018 103.145 12.7568C103.352 12.4118 103.456 12.015 103.456 11.5665C103.456 11.1065 103.352 10.7098 103.145 10.3763C102.938 10.0313 102.651 9.76676 102.283 9.58276C101.915 9.38726 101.495 9.28951 101.023 9.28951C100.552 9.28951 100.132 9.38726 99.7642 9.58276C99.3962 9.76676 99.1029 10.0313 98.8844 10.3763C98.6774 10.7098 98.5739 11.1065 98.5739 11.5665C98.5739 12.015 98.6774 12.4118 98.8844 12.7568C99.1029 13.1018 99.3962 13.372 99.7642 13.5675C100.132 13.7515 100.552 13.8435 101.023 13.8435Z" fill="white"/>
<path d="M109.79 19.9845C109.307 19.9845 108.83 19.9098 108.358 19.7603C107.887 19.6108 107.501 19.4038 107.202 19.1393L108.186 17.2245C108.393 17.4085 108.628 17.5523 108.893 17.6558C109.169 17.7593 109.439 17.811 109.704 17.811C110.083 17.811 110.382 17.719 110.601 17.535C110.831 17.3625 111.038 17.0693 111.222 16.6553L111.705 15.5168L111.912 15.2235L115.241 7.21951H117.828L113.637 17.0693C113.338 17.8168 112.993 18.4033 112.602 18.8288C112.222 19.2543 111.797 19.5533 111.325 19.7258C110.865 19.8983 110.353 19.9845 109.79 19.9845ZM111.377 16.8623L107.237 7.21951H110.014L113.223 14.982L111.377 16.8623Z" fill="white"/>
<path d="M12.3822 24.9664C11.3121 24.9664 10.3121 24.8688 9.38217 24.6736C8.45223 24.4784 7.59236 24.1856 6.80255 23.7952C7.61784 20.8916 8.73248 18.0795 10.1465 15.3588C11.5605 12.6382 13.465 10.3629 15.8599 8.53286C13.0064 9.85048 10.5287 11.6805 8.42675 14.0229C6.32484 16.3653 4.89172 19.025 4.12739 22.0018C4.02548 21.9042 3.92994 21.8188 3.84076 21.7456C3.75159 21.6724 3.65605 21.587 3.55414 21.4894C2.40764 20.3914 1.52866 19.1348 0.917197 17.7196C0.305732 16.3043 0 14.8159 0 13.2543C0 11.5707 0.33121 9.94808 0.993631 8.38646C1.65605 6.82485 2.61147 5.44623 3.85987 4.25062C5.82166 2.323 8.36943 1.07248 11.5032 0.499076C14.6369 -0.0743306 19.3248 -0.153631 25.5669 0.261173C26.051 6.06844 25.9809 10.5215 25.3567 13.6203C24.7325 16.7192 23.4013 19.2446 21.3631 21.1966C20.1401 22.4166 18.7516 23.3499 17.1975 23.9965C15.6433 24.6431 14.0382 24.9664 12.3822 24.9664Z" fill="white"/>
</svg>
